<svg xmlns="http://www.w3.org/2000/svg" width="50.888" height="42.127" viewBox="0 0 50.888 42.127"><defs><style>.a{fill:#1c3aa9;}.b{fill:#b3b3b3;}.c{fill:#4388f2;}</style></defs><g transform="translate(-336.719 -47.4)"><path class="a" d="M381.222,52.809A14.084,14.084,0,0,0,370.1,47.4v6.932a6.978,6.978,0,0,1,6.094,3.5l-4.038,4.038H384.65V49.381Z" transform="translate(-8.242)"/><path class="b" d="M372.168,69.48a7.139,7.139,0,0,1-6.094,3.5,6.952,6.952,0,0,1-5.866-3.123L364.17,65.9H351.6V78.393l3.58-3.58a14.045,14.045,0,0,0,21.787-.152Z" transform="translate(-3.835 -4.407)"/><path class="c" d="M353.2,47.476l3.352,3.352A13.931,13.931,0,0,0,351.6,61.493h6.932A7.074,7.074,0,0,1,361.5,55.7l4.19,4.19V47.4l-12.493.076Z" transform="translate(-3.835)"/><g transform="translate(336.719 81.985)"><path class="b" d="M337.176,97.252a10.226,10.226,0,0,0-.076-1.6h.838v.99h.076a1.533,1.533,0,0,1,1.447-1.143h.229v.914h-.3a1.38,1.38,0,0,0-1.3,1.219c0,.152-.076.3-.076.457v2.742H337.1v-3.58h.076Z" transform="translate(-337.1 -93.443)"/><path class="b" d="M342.014,98.419a1.658,1.658,0,0,0,1.752,1.828,5.727,5.727,0,0,0,1.447-.229l.152.686a4.222,4.222,0,0,1-1.752.3,2.38,2.38,0,0,1-2.514-2.59,2.556,2.556,0,0,1,2.438-2.819,2.178,2.178,0,0,1,2.133,2.438v.457l-3.657-.076Zm2.742-.609c0-.609-.229-1.524-1.3-1.524a1.565,1.565,0,0,0-1.447,1.524Z" transform="translate(-338.053 -93.467)"/><path class="b" d="M353.585,99.961a4.823,4.823,0,0,1-1.9.3,3.379,3.379,0,0,1-3.58-3.657,3.579,3.579,0,0,1,3.733-3.809,4.525,4.525,0,0,1,1.676.3l-.229.762a3.72,3.72,0,0,0-1.447-.3,2.684,2.684,0,0,0-2.819,2.971,2.6,2.6,0,0,0,2.742,2.895,4.507,4.507,0,0,0,1.524-.3Z" transform="translate(-339.72 -92.8)"/><path class="b" d="M357.852,97.975l-.762,2.285h-.99l2.438-7.161h1.143l2.438,7.161h-.99l-.762-2.285Zm2.362-.686-.686-2.057a11.752,11.752,0,0,1-.381-1.3h0a8.331,8.331,0,0,1-.381,1.3l-.686,2.057Z" transform="translate(-341.626 -92.871)"/><path class="b" d="M365.376,93.152A10.7,10.7,0,0,1,367.128,93a2.793,2.793,0,0,1,1.981.609,1.89,1.89,0,0,1,.609,1.524,2.294,2.294,0,0,1-.533,1.524,2.892,2.892,0,0,1-2.209.762,2.348,2.348,0,0,1-.762-.076v2.895H365.3V93.152h.076Zm.99,3.428a2.349,2.349,0,0,0,.762.076c1.143,0,1.828-.533,1.828-1.524,0-.914-.686-1.371-1.676-1.371a2.369,2.369,0,0,0-.838.076V96.58h-.076Z" transform="translate(-343.817 -92.848)"/><path class="b" d="M374.009,93.862H371.8V93.1h5.333v.762h-2.209v6.4h-.914v-6.4Z" transform="translate(-345.366 -92.871)"/><path class="b" d="M384.285,99.961a4.823,4.823,0,0,1-1.9.3,3.379,3.379,0,0,1-3.58-3.657,3.579,3.579,0,0,1,3.733-3.809,4.524,4.524,0,0,1,1.676.3l-.229.762a3.72,3.72,0,0,0-1.447-.3,2.684,2.684,0,0,0-2.819,2.971,2.6,2.6,0,0,0,2.742,2.895,4.507,4.507,0,0,0,1.524-.3Z" transform="translate(-347.033 -92.8)"/><path class="b" d="M388.514,93.1v2.971h3.5V93.1h.914v7.161h-.914V96.909h-3.5v3.352H387.6V93.1Z" transform="translate(-349.129 -92.871)"/><path class="b" d="M397.676,97.975l-.762,2.285H396l2.438-7.161h1.143l2.438,7.161h-.99l-.762-2.285Zm2.362-.686-.686-2.057a11.746,11.746,0,0,1-.381-1.3h0a8.324,8.324,0,0,1-.381,1.3L397.9,97.29Z" transform="translate(-351.13 -92.871)"/></g></g></svg>