<svg xmlns="http://www.w3.org/2000/svg" xmlns:xlink="http://www.w3.org/1999/xlink" width="59.643" height="62.493" viewBox="0 0 59.643 62.493"><defs><style>.a{clip-path:url(#a);}.b{fill:#3eb8bc;}.c{fill:#0a968e;}.d{fill:#eb5b28;}.e{fill:#c22c2e;}.f{fill:#ca4c30;}.g{fill:#e94e1b;}.h{fill:url(#h);}.i{fill:url(#j);}.j{fill:url(#l);}.k{fill:url(#n);}.l{fill:url(#p);}.m{fill:url(#r);}.n{fill:url(#t);}</style><clipPath id="a"><path d="M-61.776,6.687h41.957a5.563,5.563,0,0,0,4.924,2.987A5.539,5.539,0,0,0-9.357,4.137,5.548,5.548,0,0,0-14.931-1.4a5.517,5.517,0,0,0-5.124,3.462h-41.72a7.071,7.071,0,0,0-7.224,7v44.67a7.413,7.413,0,0,0,7.224,7.362h44.632a7.239,7.239,0,0,0,7.124-7.362V27.259a7.183,7.183,0,0,0-7.124-7.224H-43.616a7.472,7.472,0,0,0-7.474,7.224v8.312a7.242,7.242,0,0,0,7.474,6.987h9.236a5.517,5.517,0,0,0,5.124,3.462,5.539,5.539,0,0,0,5.537-5.537,5.531,5.531,0,0,0-5.537-5.537,5.577,5.577,0,0,0-4.924,2.987h-9.436a2.636,2.636,0,0,1-2.812-2.375V27.209A2.845,2.845,0,0,1-43.616,24.6h26.472a2.551,2.551,0,0,1,2.512,2.612V53.681a2.658,2.658,0,0,1-2.512,2.712H-61.776a2.75,2.75,0,0,1-2.612-2.712V9.061A2.466,2.466,0,0,1-61.776,6.687Zm46.844-5.2a2.651,2.651,0,0,1,2.65,2.65,2.651,2.651,0,0,1-2.65,2.65,2.651,2.651,0,0,1-2.65-2.65A2.651,2.651,0,0,1-14.931,1.487ZM-29.217,37.845a2.651,2.651,0,0,1,2.65,2.65,2.651,2.651,0,0,1-2.65,2.65,2.651,2.651,0,0,1-2.65-2.65A2.627,2.627,0,0,1-29.217,37.845Z" transform="translate(69 1.4)"/></clipPath><linearGradient id="h" x1="0.5" y1="0.118" x2="0.5" y2="1.076" gradientUnits="objectBoundingBox"><stop offset="0" stop-color="#0a968e"/><stop offset="1" stop-color="#3eb8bc"/></linearGradient><linearGradient id="j" y1="-4.811" x2="1" y2="-4.811" gradientUnits="objectBoundingBox"><stop offset="0" stop-color="#0a968e"/><stop offset="1" stop-color="#eb5b28"/></linearGradient><linearGradient id="l" x1="0.501" y1="0.49" x2="0.501" y2="-0.496" gradientUnits="objectBoundingBox"><stop offset="0" stop-color="#c22c2e"/><stop offset="1" stop-color="#eb5b28"/></linearGradient><linearGradient id="n" x1="0.986" y1="2.908" x2="0.019" y2="2.908" gradientUnits="objectBoundingBox"><stop offset="0" stop-color="#c22c2e"/><stop offset="1" stop-color="#ca4c30"/></linearGradient><linearGradient id="p" x1="0.5" y1="1.551" x2="0.5" y2="0.607" gradientUnits="objectBoundingBox"><stop offset="0" stop-color="#ca4c30"/><stop offset="1" stop-color="#e94e1b"/></linearGradient><linearGradient id="r" x1="1" y1="4.967" x2="0.017" y2="4.967" gradientUnits="objectBoundingBox"><stop offset="0" stop-color="#0d77ba"/><stop offset="1" stop-color="#3eb8bc"/></linearGradient><linearGradient id="t" y1="-0.531" x2="1" y2="-0.531" gradientUnits="objectBoundingBox"><stop offset="0" stop-color="#e94e1b"/><stop offset="1" stop-color="#f8ae3b"/></linearGradient></defs><g class="a" transform="translate(0 0)"><rect class="b" width="8.861" height="9.436" transform="translate(-1.8 1.3)"/></g><g class="a" transform="translate(0 0)"><rect class="c" width="8.861" height="9.436" transform="translate(-1.8 54.931)"/></g><g class="a" transform="translate(0 0)"><rect class="d" width="8.861" height="9.436" transform="translate(51.694 54.931)"/></g><g class="a" transform="translate(0 0)"><rect class="e" width="8.861" height="9.436" transform="translate(51.694 19.385)"/></g><g class="a" transform="translate(0 0)"><rect class="f" width="8.861" height="9.436" transform="translate(16.698 19.385)"/></g><g class="a" transform="translate(0 0)"><rect class="g" width="8.861" height="9.436" transform="translate(16.698 36.771)"/></g><g class="a" transform="translate(0 0)"><rect class="h" width="8.686" height="44.57" transform="translate(-1.8 10.561)"/></g><g class="a" transform="translate(0 0)"><rect class="i" width="45.007" height="9.261" transform="translate(6.849 55.131)"/></g><g class="a" transform="translate(0 0)"><rect class="j" width="8.686" height="26.472" transform="translate(51.856 28.622)"/></g><g class="a" transform="translate(0 0)"><rect class="k" width="26.472" height="9.261" transform="translate(25.384 19.385)"/></g><g class="a" transform="translate(0 0)"><rect class="l" width="8.686" height="8.312" transform="translate(16.698 28.622)"/></g><g class="a"><path class="m" d="M26.433-6.5v1.937H-14.2V4.7H26.433V6.6H39.506V-6.5Z" transform="translate(21.049 5.863)"/></g><g class="a"><path class="n" d="M142.049,281.6v1.6H134.1v9.236h7.949v2.175h13V281.6Z" transform="translate(-108.716 -246.229)"/></g></svg>