<svg xmlns="http://www.w3.org/2000/svg" width="40" height="32.468" viewBox="0 0 40 32.468"><defs><style>.a{fill:#36a9ae;}</style></defs><path class="a" d="M987.12,1148.979v1.05a23.734,23.734,0,0,1-1.507,8.22,24.493,24.493,0,0,1-4.475,7.488,22.188,22.188,0,0,1-7.306,5.48,23.84,23.84,0,0,1-10,2.1,23.368,23.368,0,0,1-6.667-.958,22.694,22.694,0,0,1-5.936-2.694c.64.063,1.293.092,1.964.092a16.326,16.326,0,0,0,5.434-.913,17.09,17.09,0,0,0,4.748-2.558,8.2,8.2,0,0,1-4.748-1.667,7.913,7.913,0,0,1-2.878-4.041,8.2,8.2,0,0,0,1.507.137,8.512,8.512,0,0,0,2.147-.273,7.925,7.925,0,0,1-3.334-1.53,8.144,8.144,0,0,1-2.352-2.878,8.545,8.545,0,0,1-.891-3.63v-.137a7.7,7.7,0,0,0,3.745,1.05,8.228,8.228,0,0,1-2.671-2.945,8.009,8.009,0,0,1-.982-3.9,8.152,8.152,0,0,1,1.1-4.109,23.341,23.341,0,0,0,7.443,6.026,23.105,23.105,0,0,0,9.451,2.556,9.486,9.486,0,0,1-.182-1.872,8,8,0,0,1,1.1-4.11,8.281,8.281,0,0,1,2.991-2.989,7.893,7.893,0,0,1,4.087-1.119,8.131,8.131,0,0,1,5.981,2.6,15.975,15.975,0,0,0,5.205-2.008,7.942,7.942,0,0,1-1.393,2.624,8.407,8.407,0,0,1-2.215,1.941,16.721,16.721,0,0,0,4.749-1.323A17.182,17.182,0,0,1,987.12,1148.979Z" transform="translate(-951.23 -1140.849)"/></svg>